<svg width="919" height="401" viewBox="0 0 919 401" fill="none" xmlns="http://www.w3.org/2000/svg">
<rect width="919" height="400" transform="translate(0 0.483154)" fill="#18191C"/>
<path d="M577.514 292.95C576.014 292.95 574.574 292.725 573.194 292.275C571.844 291.825 570.584 291.165 569.414 290.295C568.274 289.395 567.269 288.3 566.399 287.01L568.019 285.345C569.339 287.265 570.809 288.645 572.429 289.485C574.049 290.295 575.774 290.7 577.604 290.7C579.194 290.7 580.619 290.43 581.879 289.89C583.139 289.32 584.129 288.555 584.849 287.595C585.599 286.605 585.974 285.495 585.974 284.265C585.974 283.425 585.824 282.705 585.524 282.105C585.254 281.505 584.849 280.98 584.309 280.53C583.799 280.08 583.169 279.69 582.419 279.36C581.699 279 580.874 278.685 579.944 278.415C579.044 278.115 578.069 277.815 577.019 277.515C575.579 277.095 574.289 276.66 573.149 276.21C572.039 275.76 571.079 275.22 570.269 274.59C569.489 273.96 568.889 273.21 568.469 272.34C568.079 271.47 567.884 270.405 567.884 269.145C567.884 267.915 568.124 266.79 568.604 265.77C569.114 264.75 569.819 263.865 570.719 263.115C571.619 262.365 572.654 261.795 573.824 261.405C575.024 260.985 576.314 260.775 577.694 260.775C579.314 260.775 580.724 261.015 581.924 261.495C583.154 261.945 584.234 262.59 585.164 263.43C586.094 264.27 586.934 265.26 587.684 266.4L586.019 268.02C585.359 267 584.624 266.115 583.814 265.365C583.004 264.615 582.089 264.045 581.069 263.655C580.079 263.235 578.954 263.025 577.694 263.025C576.254 263.025 574.964 263.295 573.824 263.835C572.714 264.345 571.829 265.065 571.169 265.995C570.509 266.925 570.179 267.99 570.179 269.19C570.179 270.03 570.329 270.765 570.629 271.395C570.959 272.025 571.454 272.58 572.114 273.06C572.804 273.51 573.659 273.93 574.679 274.32C575.729 274.68 576.974 275.04 578.414 275.4C579.884 275.76 581.219 276.18 582.419 276.66C583.619 277.14 584.654 277.71 585.524 278.37C586.424 279.03 587.099 279.825 587.549 280.755C588.029 281.685 588.269 282.81 588.269 284.13C588.269 285.81 587.804 287.325 586.874 288.675C585.944 289.995 584.669 291.045 583.049 291.825C581.429 292.575 579.584 292.95 577.514 292.95ZM599.504 292.5V261H617.819V263.25H601.754V290.25H617.639V292.5H599.504ZM600.584 277.38V275.13H615.254V277.38H600.584ZM629.827 292.5V261H641.167C643.027 261 644.677 261.42 646.117 262.26C647.587 263.1 648.742 264.24 649.582 265.68C650.422 267.09 650.842 268.695 650.842 270.495C650.842 272.295 650.437 273.87 649.627 275.22C648.847 276.57 647.752 277.635 646.342 278.415C644.962 279.165 643.387 279.54 641.617 279.54H632.077V292.5H629.827ZM649.447 292.5L641.617 278.955L643.507 277.785L652.057 292.5H649.447ZM632.077 277.29H641.887C643.177 277.29 644.317 277.005 645.307 276.435C646.297 275.865 647.062 275.07 647.602 274.05C648.172 273.03 648.457 271.875 648.457 270.585C648.457 269.175 648.142 267.915 647.512 266.805C646.882 265.695 645.997 264.825 644.857 264.195C643.747 263.565 642.472 263.25 641.032 263.25H632.077V277.29ZM668.777 292.5L656.942 261H659.462L667.607 282.78C667.967 283.71 668.267 284.535 668.507 285.255C668.777 285.975 669.032 286.665 669.272 287.325C669.512 287.985 669.752 288.675 669.992 289.395C670.232 290.115 670.502 290.955 670.802 291.915H669.587C670.007 290.625 670.367 289.515 670.667 288.585C670.997 287.625 671.327 286.695 671.657 285.795C671.987 284.865 672.407 283.77 672.917 282.51L681.377 261H683.807L671.387 292.5H668.777ZM692.013 292.5V290.25H697.098V263.25H692.013V261H704.433V263.25H699.348V290.25H704.433V292.5H692.013ZM728.974 292.95C726.664 292.95 724.534 292.56 722.584 291.78C720.664 290.97 718.984 289.845 717.544 288.405C716.134 286.935 715.039 285.21 714.259 283.23C713.479 281.25 713.089 279.09 713.089 276.75C713.089 274.41 713.464 272.28 714.214 270.36C714.964 268.41 716.029 266.715 717.409 265.275C718.819 263.835 720.454 262.725 722.314 261.945C724.204 261.165 726.274 260.775 728.524 260.775C729.934 260.775 731.359 261.015 732.799 261.495C734.239 261.945 735.574 262.575 736.804 263.385C738.034 264.195 739.054 265.125 739.864 266.175L738.199 267.93C737.539 266.97 736.684 266.13 735.634 265.41C734.584 264.66 733.444 264.075 732.214 263.655C730.984 263.235 729.754 263.025 728.524 263.025C726.634 263.025 724.879 263.37 723.259 264.06C721.669 264.72 720.289 265.665 719.119 266.895C717.979 268.125 717.079 269.58 716.419 271.26C715.789 272.94 715.474 274.77 715.474 276.75C715.474 278.76 715.804 280.62 716.464 282.33C717.124 284.04 718.054 285.525 719.254 286.785C720.484 288.015 721.909 288.975 723.529 289.665C725.179 290.355 726.994 290.7 728.974 290.7C730.174 290.7 731.359 290.535 732.529 290.205C733.729 289.845 734.809 289.365 735.769 288.765C736.729 288.135 737.494 287.43 738.064 286.65L739.279 288.63C738.559 289.47 737.629 290.22 736.489 290.88C735.379 291.51 734.164 292.02 732.844 292.41C731.554 292.77 730.264 292.95 728.974 292.95ZM750.021 292.5V261H768.336V263.25H752.271V290.25H768.156V292.5H750.021ZM751.101 277.38V275.13H765.771V277.38H751.101ZM789.029 292.95C787.529 292.95 786.089 292.725 784.709 292.275C783.359 291.825 782.099 291.165 780.929 290.295C779.789 289.395 778.784 288.3 777.914 287.01L779.534 285.345C780.854 287.265 782.324 288.645 783.944 289.485C785.564 290.295 787.289 290.7 789.119 290.7C790.709 290.7 792.134 290.43 793.394 289.89C794.654 289.32 795.644 288.555 796.364 287.595C797.114 286.605 797.489 285.495 797.489 284.265C797.489 283.425 797.339 282.705 797.039 282.105C796.769 281.505 796.364 280.98 795.824 280.53C795.314 280.08 794.684 279.69 793.934 279.36C793.214 279 792.389 278.685 791.459 278.415C790.559 278.115 789.584 277.815 788.534 277.515C787.094 277.095 785.804 276.66 784.664 276.21C783.554 275.76 782.594 275.22 781.784 274.59C781.004 273.96 780.404 273.21 779.984 272.34C779.594 271.47 779.399 270.405 779.399 269.145C779.399 267.915 779.639 266.79 780.119 265.77C780.629 264.75 781.334 263.865 782.234 263.115C783.134 262.365 784.169 261.795 785.339 261.405C786.539 260.985 787.829 260.775 789.209 260.775C790.829 260.775 792.239 261.015 793.439 261.495C794.669 261.945 795.749 262.59 796.679 263.43C797.609 264.27 798.449 265.26 799.199 266.4L797.534 268.02C796.874 267 796.139 266.115 795.329 265.365C794.519 264.615 793.604 264.045 792.584 263.655C791.594 263.235 790.469 263.025 789.209 263.025C787.769 263.025 786.479 263.295 785.339 263.835C784.229 264.345 783.344 265.065 782.684 265.995C782.024 266.925 781.694 267.99 781.694 269.19C781.694 270.03 781.844 270.765 782.144 271.395C782.474 272.025 782.969 272.58 783.629 273.06C784.319 273.51 785.174 273.93 786.194 274.32C787.244 274.68 788.489 275.04 789.929 275.4C791.399 275.76 792.734 276.18 793.934 276.66C795.134 277.14 796.169 277.71 797.039 278.37C797.939 279.03 798.614 279.825 799.064 280.755C799.544 281.685 799.784 282.81 799.784 284.13C799.784 285.81 799.319 287.325 798.389 288.675C797.459 289.995 796.184 291.045 794.564 291.825C792.944 292.575 791.099 292.95 789.029 292.95Z" fill="#CECECE"/>
<path d="M376.518 276.5H543.055" stroke="#C4C4C4" stroke-width="2"/>
<path d="M206.692 238.494C198.642 255.127 190.65 271.789 182.456 288.35C181.557 290.167 179.491 291.401 177.966 292.905C176.603 291.487 174.754 290.302 173.947 288.616C150.813 240.258 127.782 191.85 104.747 143.445C104.225 142.348 103.852 141.179 103.159 139.402C114.55 138.302 125.524 137.88 135.031 143.984C139.293 146.721 142.818 151.646 145.05 156.354C154.324 175.918 162.965 195.783 171.873 215.522C173.043 218.112 174.412 220.612 176.209 224.192C179.947 216.269 183.241 209.287 187.08 201.759C217.363 201.239 247.101 201.266 276.838 201.292C298.848 206.329 312.989 220.073 316.185 239.535C320.481 265.698 303.012 290.509 276.652 292.76C255.394 294.575 233.894 293.55 212.501 293.779C210.435 293.801 208.369 293.782 205.229 293.782C205.912 290.315 206.131 287.473 207.041 284.875C211.431 272.34 222.751 263.824 236.096 263.41C247.21 263.065 263.018 263.99 274.128 264.485C263.841 266.973 247.206 263.822 236.007 263.822C246.535 263.232 257.358 265.077 268.023 264.929C269.759 264.905 271.482 263.898 273.211 263.346C288.592 257.957 289.078 244.452 282.514 237.256C280.633 235.193 278.648 233.775 275.902 232.161C275.561 232.128 275.052 231.452 273.99 230.921C274.019 230.695 274.637 231.239 274.215 230.921C272.588 230.302 271.383 229.742 270.177 229.738C251.708 229.67 233.238 229.65 214.769 229.713C213.373 229.717 211.979 230.428 210.319 231.033C209.812 231.639 209.571 232.022 209.329 232.405C209.136 232.776 208.982 233.162 208.564 234.137C207.738 235.971 207.215 237.232 206.692 238.494Z" fill="#ECECEC"/>
<path d="M276.484 169.257C250.39 169.287 224.862 169.287 198.338 169.287C203.825 154.247 214.066 145.606 228.072 141.164C232.212 139.851 236.707 139.14 241.05 139.088C261.58 138.841 282.114 138.912 302.647 138.894C303.66 138.893 304.673 139.111 305.585 139.215C308.56 150.698 292.603 169.486 276.484 169.257Z" fill="#FFD739"/>
<path d="M382.705 229.483L346.865 139.883H362.609L383.985 194.283C385.009 196.928 385.905 199.318 386.673 201.451C387.526 203.584 388.252 205.547 388.849 207.339C389.446 209.046 390.001 210.667 390.513 212.203C391.025 213.739 391.537 215.275 392.049 216.811L388.721 216.939C389.318 214.891 389.958 212.758 390.641 210.539C391.324 208.32 392.092 205.888 392.945 203.243C393.884 200.598 394.993 197.611 396.273 194.283L416.113 139.883H432.241L396.145 229.483H382.705ZM446.685 229.483V162.283H459.869V229.483H446.685ZM453.085 147.435C450.269 147.435 448.093 146.71 446.557 145.259C445.021 143.808 444.253 141.76 444.253 139.115C444.253 136.64 445.021 134.635 446.557 133.099C448.178 131.563 450.354 130.795 453.085 130.795C455.901 130.795 458.077 131.52 459.613 132.971C461.149 134.422 461.917 136.47 461.917 139.115C461.917 141.59 461.106 143.595 459.485 145.131C457.949 146.667 455.816 147.435 453.085 147.435ZM502.534 230.763C496.902 230.763 491.825 229.782 487.302 227.819C482.779 225.856 479.025 222.955 476.038 219.115L484.998 211.435C487.558 214.422 490.331 216.598 493.318 217.963C496.39 219.243 499.846 219.883 503.686 219.883C505.222 219.883 506.63 219.712 507.91 219.371C509.275 218.944 510.427 218.347 511.366 217.579C512.39 216.811 513.158 215.915 513.67 214.891C514.182 213.782 514.438 212.587 514.438 211.307C514.438 209.088 513.627 207.296 512.006 205.931C511.153 205.334 509.787 204.694 507.91 204.011C506.118 203.243 503.771 202.475 500.87 201.707C495.921 200.427 491.867 198.976 488.71 197.355C485.553 195.734 483.121 193.899 481.414 191.851C480.134 190.23 479.195 188.48 478.598 186.603C478.001 184.64 477.702 182.507 477.702 180.203C477.702 177.387 478.299 174.827 479.494 172.523C480.774 170.134 482.481 168.086 484.614 166.379C486.833 164.587 489.393 163.222 492.294 162.283C495.281 161.344 498.438 160.875 501.766 160.875C504.923 160.875 508.038 161.302 511.11 162.155C514.267 163.008 517.169 164.246 519.814 165.867C522.459 167.488 524.678 169.408 526.47 171.627L518.918 179.947C517.297 178.326 515.505 176.918 513.542 175.723C511.665 174.443 509.745 173.462 507.782 172.779C505.819 172.096 504.027 171.755 502.406 171.755C500.614 171.755 498.993 171.926 497.542 172.267C496.091 172.608 494.854 173.12 493.83 173.803C492.891 174.486 492.166 175.339 491.654 176.363C491.142 177.387 490.886 178.539 490.886 179.819C490.971 180.928 491.227 181.995 491.654 183.019C492.166 183.958 492.849 184.768 493.702 185.451C494.641 186.134 496.049 186.859 497.926 187.627C499.803 188.395 502.193 189.12 505.094 189.803C509.361 190.912 512.859 192.15 515.59 193.515C518.406 194.795 520.625 196.288 522.246 197.995C523.953 199.616 525.147 201.494 525.83 203.627C526.513 205.76 526.854 208.15 526.854 210.795C526.854 214.635 525.745 218.091 523.526 221.163C521.393 224.15 518.491 226.496 514.822 228.203C511.153 229.91 507.057 230.763 502.534 230.763ZM572.744 230.763C565.832 230.763 559.688 229.312 554.312 226.411C549.021 223.424 544.84 219.371 541.768 214.251C538.781 209.131 537.288 203.243 537.288 196.587C537.288 191.296 538.141 186.475 539.848 182.123C541.555 177.771 543.901 174.016 546.888 170.859C549.96 167.616 553.587 165.142 557.768 163.435C562.035 161.643 566.643 160.747 571.592 160.747C575.944 160.747 579.997 161.6 583.752 163.307C587.507 164.928 590.749 167.19 593.48 170.091C596.296 172.992 598.429 176.448 599.88 180.459C601.416 184.384 602.141 188.694 602.056 193.387L601.928 199.019H547.016L544.072 188.523H590.536L588.616 190.699V187.627C588.36 184.811 587.421 182.294 585.8 180.075C584.179 177.856 582.131 176.107 579.656 174.827C577.181 173.547 574.493 172.907 571.592 172.907C566.984 172.907 563.101 173.803 559.944 175.595C556.787 177.302 554.397 179.862 552.776 183.275C551.155 186.603 550.344 190.742 550.344 195.691C550.344 200.384 551.325 204.48 553.288 207.979C555.251 211.392 558.024 214.038 561.608 215.915C565.192 217.792 569.331 218.731 574.024 218.731C577.352 218.731 580.424 218.176 583.24 217.067C586.141 215.958 589.256 213.952 592.584 211.051L599.24 220.395C597.192 222.443 594.675 224.235 591.688 225.771C588.787 227.307 585.672 228.544 582.344 229.483C579.101 230.336 575.901 230.763 572.744 230.763ZM616.384 229.483V162.283H629.696V183.403L628.416 178.283C629.355 175.04 630.933 172.096 633.152 169.451C635.456 166.806 638.059 164.715 640.96 163.179C643.947 161.643 647.019 160.875 650.176 160.875C651.627 160.875 652.992 161.003 654.272 161.259C655.637 161.515 656.704 161.814 657.472 162.155L654.016 176.491C652.992 176.064 651.84 175.723 650.56 175.467C649.365 175.126 648.171 174.955 646.976 174.955C644.672 174.955 642.453 175.424 640.32 176.363C638.272 177.216 636.437 178.454 634.816 180.075C633.28 181.611 632.043 183.446 631.104 185.579C630.165 187.627 629.696 189.888 629.696 192.363V229.483H616.384ZM696.4 229.483L667.984 162.283H682.192L702.672 212.587L700.24 213.739L722.128 162.283H735.696L705.872 229.483H696.4ZM777.244 230.763C770.332 230.763 764.188 229.312 758.812 226.411C753.521 223.424 749.34 219.371 746.268 214.251C743.281 209.131 741.788 203.243 741.788 196.587C741.788 191.296 742.641 186.475 744.348 182.123C746.055 177.771 748.401 174.016 751.388 170.859C754.46 167.616 758.087 165.142 762.268 163.435C766.535 161.643 771.143 160.747 776.092 160.747C780.444 160.747 784.497 161.6 788.252 163.307C792.007 164.928 795.249 167.19 797.98 170.091C800.796 172.992 802.929 176.448 804.38 180.459C805.916 184.384 806.641 188.694 806.556 193.387L806.428 199.019H751.516L748.572 188.523H795.036L793.116 190.699V187.627C792.86 184.811 791.921 182.294 790.3 180.075C788.679 177.856 786.631 176.107 784.156 174.827C781.681 173.547 778.993 172.907 776.092 172.907C771.484 172.907 767.601 173.803 764.444 175.595C761.287 177.302 758.897 179.862 757.276 183.275C755.655 186.603 754.844 190.742 754.844 195.691C754.844 200.384 755.825 204.48 757.788 207.979C759.751 211.392 762.524 214.038 766.108 215.915C769.692 217.792 773.831 218.731 778.524 218.731C781.852 218.731 784.924 218.176 787.74 217.067C790.641 215.958 793.756 213.952 797.084 211.051L803.74 220.395C801.692 222.443 799.175 224.235 796.188 225.771C793.287 227.307 790.172 228.544 786.844 229.483C783.601 230.336 780.401 230.763 777.244 230.763Z" fill="#ECECEC"/>
</svg>
